<svg xmlns="http://www.w3.org/2000/svg" xmlns:xlink="http://www.w3.org/1999/xlink" width="2209.565" height="1307.001" viewBox="0 0 2209.565 1307.001"><defs><clipPath id="a"><rect width="332.39" height="269" fill="none"/></clipPath></defs><g transform="translate(103.565 -1257)"><g transform="matrix(0.875, 0.485, -0.485, 0.875, 26.849, 2167.582)" opacity="0.1" clip-path="url(#a)"><g transform="translate(0 -275)"><circle cx="3" cy="3" r="3" transform="translate(0 275)" fill="#ff4cf3"/></g><g transform="translate(26 -275)"><circle cx="3" cy="3" r="3" transform="translate(0 275)" fill="#ff4cf3"/></g><g transform="translate(52 -275)"><circle cx="3" cy="3" r="3" transform="translate(0 275)" fill="#ff4cf3"/></g><g transform="translate(78 -275)"><circle cx="3" cy="3" r="3" transform="translate(0 275)" fill="#ff4cf3"/></g><g transform="translate(104 -275)"><circle cx="3" cy="3" r="3" transform="translate(0 275)" fill="#ff4cf3"/></g><g transform="translate(130 -275)"><circle cx="3" cy="3" r="3" transform="translate(0 275)" fill="#ff4cf3"/></g><g transform="translate(156 -275)"><circle cx="3" cy="3" r="3" transform="translate(0 275)" fill="#ff4cf3"/></g><g transform="translate(182 -275)"><circle cx="3" cy="3" r="3" transform="translate(0 275)" fill="#ff4cf3"/></g><g transform="translate(208 -275)"><circle cx="3" cy="3" r="3" transform="translate(0 275)" fill="#ff4cf3"/></g><g transform="translate(234 -275)"><circle cx="3" cy="3" r="3" transform="translate(0 275)" fill="#ff4cf3"/></g><g transform="translate(260 -275)"><circle cx="3" cy="3" r="3" transform="translate(0 275)" fill="#ff4cf3"/></g><g transform="translate(286 -275)"><circle cx="3" cy="3" r="3" transform="translate(0 275)" fill="#ff4cf3"/></g><g transform="translate(312 -275)"><circle cx="3" cy="3" r="3" transform="translate(0 275)" fill="#ff4cf3"/></g><g transform="translate(0 -249)"><circle cx="3" cy="3" r="3" transform="translate(0 275)" fill="#ff4cf3"/></g><g transform="translate(26 -249)"><circle cx="3" cy="3" r="3" transform="translate(0 275)" fill="#ff4cf3"/></g><g transform="translate(52 -249)"><circle cx="3" cy="3" r="3" transform="translate(0 275)" fill="#ff4cf3"/></g><g transform="translate(78 -249)"><circle cx="3" cy="3" r="3" transform="translate(0 275)" fill="#ff4cf3"/></g><g transform="translate(104 -249)"><circle cx="3" cy="3" r="3" transform="translate(0 275)" fill="#ff4cf3"/></g><g transform="translate(130 -249)"><circle cx="3" cy="3" r="3" transform="translate(0 275)" fill="#ff4cf3"/></g><g transform="translate(156 -249)"><circle cx="3" cy="3" r="3" transform="translate(0 275)" fill="#ff4cf3"/></g><g transform="translate(182 -249)"><circle cx="3" cy="3" r="3" transform="translate(0 275)" fill="#ff4cf3"/></g><g transform="translate(208 -249)"><circle cx="3" cy="3" r="3" transform="translate(0 275)" fill="#ff4cf3"/></g><g transform="translate(234 -249)"><circle cx="3" cy="3" r="3" transform="translate(0 275)" fill="#ff4cf3"/></g><g transform="translate(260 -249)"><circle cx="3" cy="3" r="3" transform="translate(0 275)" fill="#ff4cf3"/></g><g transform="translate(286 -249)"><circle cx="3" cy="3" r="3" transform="translate(0 275)" fill="#ff4cf3"/></g><g transform="translate(312 -249)"><circle cx="3" cy="3" r="3" transform="translate(0 275)" fill="#ff4cf3"/></g><g transform="translate(0 -223)"><circle cx="3" cy="3" r="3" transform="translate(0 275)" fill="#ff4cf3"/></g><g transform="translate(26 -223)"><circle cx="3" cy="3" r="3" transform="translate(0 275)" fill="#ff4cf3"/></g><g transform="translate(52 -223)"><circle cx="3" cy="3" r="3" transform="translate(0 275)" fill="#ff4cf3"/></g><g transform="translate(78 -223)"><circle cx="3" cy="3" r="3" transform="translate(0 275)" fill="#ff4cf3"/></g><g transform="translate(104 -223)"><circle cx="3" cy="3" r="3" transform="translate(0 275)" fill="#ff4cf3"/></g><g transform="translate(130 -223)"><circle cx="3" cy="3" r="3" transform="translate(0 275)" fill="#ff4cf3"/></g><g transform="translate(156 -223)"><circle cx="3" cy="3" r="3" transform="translate(0 275)" fill="#ff4cf3"/></g><g transform="translate(182 -223)"><circle cx="3" cy="3" r="3" transform="translate(0 275)" fill="#ff4cf3"/></g><g transform="translate(208 -223)"><circle cx="3" cy="3" r="3" transform="translate(0 275)" fill="#ff4cf3"/></g><g transform="translate(234 -223)"><circle cx="3" cy="3" r="3" transform="translate(0 275)" fill="#ff4cf3"/></g><g transform="translate(260 -223)"><circle cx="3" cy="3" r="3" transform="translate(0 275)" fill="#ff4cf3"/></g><g transform="translate(286 -223)"><circle cx="3" cy="3" r="3" transform="translate(0 275)" fill="#ff4cf3"/></g><g transform="translate(312 -223)"><circle cx="3" cy="3" r="3" transform="translate(0 275)" fill="#ff4cf3"/></g><g transform="translate(0 -197)"><circle cx="3" cy="3" r="3" transform="translate(0 275)" fill="#ff4cf3"/></g><g transform="translate(26 -197)"><circle cx="3" cy="3" r="3" transform="translate(0 275)" fill="#ff4cf3"/></g><g transform="translate(52 -197)"><circle cx="3" cy="3" r="3" transform="translate(0 275)" fill="#ff4cf3"/></g><g transform="translate(78 -197)"><circle cx="3" cy="3" r="3" transform="translate(0 275)" fill="#ff4cf3"/></g><g transform="translate(104 -197)"><circle cx="3" cy="3" r="3" transform="translate(0 275)" fill="#ff4cf3"/></g><g transform="translate(130 -197)"><circle cx="3" cy="3" r="3" transform="translate(0 275)" fill="#ff4cf3"/></g><g transform="translate(156 -197)"><circle cx="3" cy="3" r="3" transform="translate(0 275)" fill="#ff4cf3"/></g><g transform="translate(182 -197)"><circle cx="3" cy="3" r="3" transform="translate(0 275)" fill="#ff4cf3"/></g><g transform="translate(208 -197)"><circle cx="3" cy="3" r="3" transform="translate(0 275)" fill="#ff4cf3"/></g><g transform="translate(234 -197)"><circle cx="3" cy="3" r="3" transform="translate(0 275)" fill="#ff4cf3"/></g><g transform="translate(260 -197)"><circle cx="3" cy="3" r="3" transform="translate(0 275)" fill="#ff4cf3"/></g><g transform="translate(286 -197)"><circle cx="3" cy="3" r="3" transform="translate(0 275)" fill="#ff4cf3"/></g><g transform="translate(312 -197)"><circle cx="3" cy="3" r="3" transform="translate(0 275)" fill="#ff4cf3"/></g><g transform="translate(0 -171)"><circle cx="3" cy="3" r="3" transform="translate(0 275)" fill="#ff4cf3"/></g><g transform="translate(26 -171)"><circle cx="3" cy="3" r="3" transform="translate(0 275)" fill="#ff4cf3"/></g><g transform="translate(52 -171)"><circle cx="3" cy="3" r="3" transform="translate(0 275)" fill="#ff4cf3"/></g><g transform="translate(78 -171)"><circle cx="3" cy="3" r="3" transform="translate(0 275)" fill="#ff4cf3"/></g><g transform="translate(104 -171)"><circle cx="3" cy="3" r="3" transform="translate(0 275)" fill="#ff4cf3"/></g><g transform="translate(130 -171)"><circle cx="3" cy="3" r="3" transform="translate(0 275)" fill="#ff4cf3"/></g><g transform="translate(156 -171)"><circle cx="3" cy="3" r="3" transform="translate(0 275)" fill="#ff4cf3"/></g><g transform="translate(182 -171)"><circle cx="3" cy="3" r="3" transform="translate(0 275)" fill="#ff4cf3"/></g><g transform="translate(208 -171)"><circle cx="3" cy="3" r="3" transform="translate(0 275)" fill="#ff4cf3"/></g><g transform="translate(234 -171)"><circle cx="3" cy="3" r="3" transform="translate(0 275)" fill="#ff4cf3"/></g><g transform="translate(260 -171)"><circle cx="3" cy="3" r="3" transform="translate(0 275)" fill="#ff4cf3"/></g><g transform="translate(286 -171)"><circle cx="3" cy="3" r="3" transform="translate(0 275)" fill="#ff4cf3"/></g><g transform="translate(312 -171)"><circle cx="3" cy="3" r="3" transform="translate(0 275)" fill="#ff4cf3"/></g><g transform="translate(0 -145)"><circle cx="3" cy="3" r="3" transform="translate(0 275)" fill="#ff4cf3"/></g><g transform="translate(26 -145)"><circle cx="3" cy="3" r="3" transform="translate(0 275)" fill="#ff4cf3"/></g><g transform="translate(52 -145)"><circle cx="3" cy="3" r="3" transform="translate(0 275)" fill="#ff4cf3"/></g><g transform="translate(78 -145)"><circle cx="3" cy="3" r="3" transform="translate(0 275)" fill="#ff4cf3"/></g><g transform="translate(104 -145)"><circle cx="3" cy="3" r="3" transform="translate(0 275)" fill="#ff4cf3"/></g><g transform="translate(130 -145)"><circle cx="3" cy="3" r="3" transform="translate(0 275)" fill="#ff4cf3"/></g><g transform="translate(156 -145)"><circle cx="3" cy="3" r="3" transform="translate(0 275)" fill="#ff4cf3"/></g><g transform="translate(182 -145)"><circle cx="3" cy="3" r="3" transform="translate(0 275)" fill="#ff4cf3"/></g><g transform="translate(208 -145)"><circle cx="3" cy="3" r="3" transform="translate(0 275)" fill="#ff4cf3"/></g><g transform="translate(234 -145)"><circle cx="3" cy="3" r="3" transform="translate(0 275)" fill="#ff4cf3"/></g><g transform="translate(260 -145)"><circle cx="3" cy="3" r="3" transform="translate(0 275)" fill="#ff4cf3"/></g><g transform="translate(286 -145)"><circle cx="3" cy="3" r="3" transform="translate(0 275)" fill="#ff4cf3"/></g><g transform="translate(312 -145)"><circle cx="3" cy="3" r="3" transform="translate(0 275)" fill="#ff4cf3"/></g><g transform="translate(0 -119)"><circle cx="3" cy="3" r="3" transform="translate(0 275)" fill="#ff4cf3"/></g><g transform="translate(26 -119)"><circle cx="3" cy="3" r="3" transform="translate(0 275)" fill="#ff4cf3"/></g><g transform="translate(52 -119)"><circle cx="3" cy="3" r="3" transform="translate(0 275)" fill="#ff4cf3"/></g><g transform="translate(78 -119)"><circle cx="3" cy="3" r="3" transform="translate(0 275)" fill="#ff4cf3"/></g><g transform="translate(104 -119)"><circle cx="3" cy="3" r="3" transform="translate(0 275)" fill="#ff4cf3"/></g><g transform="translate(130 -119)"><circle cx="3" cy="3" r="3" transform="translate(0 275)" fill="#ff4cf3"/></g><g transform="translate(156 -119)"><circle cx="3" cy="3" r="3" transform="translate(0 275)" fill="#ff4cf3"/></g><g transform="translate(182 -119)"><circle cx="3" cy="3" r="3" transform="translate(0 275)" fill="#ff4cf3"/></g><g transform="translate(208 -119)"><circle cx="3" cy="3" r="3" transform="translate(0 275)" fill="#ff4cf3"/></g><g transform="translate(234 -119)"><circle cx="3" cy="3" r="3" transform="translate(0 275)" fill="#ff4cf3"/></g><g transform="translate(260 -119)"><circle cx="3" cy="3" r="3" transform="translate(0 275)" fill="#ff4cf3"/></g><g transform="translate(286 -119)"><circle cx="3" cy="3" r="3" transform="translate(0 275)" fill="#ff4cf3"/></g><g transform="translate(312 -119)"><circle cx="3" cy="3" r="3" transform="translate(0 275)" fill="#ff4cf3"/></g><g transform="translate(0 -93)"><circle cx="3" cy="3" r="3" transform="translate(0 275)" fill="#ff4cf3"/></g><g transform="translate(26 -93)"><circle cx="3" cy="3" r="3" transform="translate(0 275)" fill="#ff4cf3"/></g><g transform="translate(52 -93)"><circle cx="3" cy="3" r="3" transform="translate(0 275)" fill="#ff4cf3"/></g><g transform="translate(78 -93)"><circle cx="3" cy="3" r="3" transform="translate(0 275)" fill="#ff4cf3"/></g><g transform="translate(104 -93)"><circle cx="3" cy="3" r="3" transform="translate(0 275)" fill="#ff4cf3"/></g><g transform="translate(130 -93)"><circle cx="3" cy="3" r="3" transform="translate(0 275)" fill="#ff4cf3"/></g><g transform="translate(156 -93)"><circle cx="3" cy="3" r="3" transform="translate(0 275)" fill="#ff4cf3"/></g><g transform="translate(182 -93)"><circle cx="3" cy="3" r="3" transform="translate(0 275)" fill="#ff4cf3"/></g><g transform="translate(208 -93)"><circle cx="3" cy="3" r="3" transform="translate(0 275)" fill="#ff4cf3"/></g><g transform="translate(234 -93)"><circle cx="3" cy="3" r="3" transform="translate(0 275)" fill="#ff4cf3"/></g><g transform="translate(260 -93)"><circle cx="3" cy="3" r="3" transform="translate(0 275)" fill="#ff4cf3"/></g><g transform="translate(286 -93)"><circle cx="3" cy="3" r="3" transform="translate(0 275)" fill="#ff4cf3"/></g><g transform="translate(312 -93)"><circle cx="3" cy="3" r="3" transform="translate(0 275)" fill="#ff4cf3"/></g><g transform="translate(0 -67)"><circle cx="3" cy="3" r="3" transform="translate(0 275)" fill="#ff4cf3"/></g><g transform="translate(26 -67)"><circle cx="3" cy="3" r="3" transform="translate(0 275)" fill="#ff4cf3"/></g><g transform="translate(52 -67)"><circle cx="3" cy="3" r="3" transform="translate(0 275)" fill="#ff4cf3"/></g><g transform="translate(78 -67)"><circle cx="3" cy="3" r="3" transform="translate(0 275)" fill="#ff4cf3"/></g><g transform="translate(104 -67)"><circle cx="3" cy="3" r="3" transform="translate(0 275)" fill="#ff4cf3"/></g><g transform="translate(130 -67)"><circle cx="3" cy="3" r="3" transform="translate(0 275)" fill="#ff4cf3"/></g><g transform="translate(156 -67)"><circle cx="3" cy="3" r="3" transform="translate(0 275)" fill="#ff4cf3"/></g><g transform="translate(182 -67)"><circle cx="3" cy="3" r="3" transform="translate(0 275)" fill="#ff4cf3"/></g><g transform="translate(208 -67)"><circle cx="3" cy="3" r="3" transform="translate(0 275)" fill="#ff4cf3"/></g><g transform="translate(234 -67)"><circle cx="3" cy="3" r="3" transform="translate(0 275)" fill="#ff4cf3"/></g><g transform="translate(260 -67)"><circle cx="3" cy="3" r="3" transform="translate(0 275)" fill="#ff4cf3"/></g><g transform="translate(286 -67)"><circle cx="3" cy="3" r="3" transform="translate(0 275)" fill="#ff4cf3"/></g><g transform="translate(312 -67)"><circle cx="3" cy="3" r="3" transform="translate(0 275)" fill="#ff4cf3"/></g><g transform="translate(0 -41)"><circle cx="3" cy="3" r="3" transform="translate(0 275)" fill="#ff4cf3"/></g><g transform="translate(26 -41)"><circle cx="3" cy="3" r="3" transform="translate(0 275)" fill="#ff4cf3"/></g><g transform="translate(52 -41)"><circle cx="3" cy="3" r="3" transform="translate(0 275)" fill="#ff4cf3"/></g><g transform="translate(78 -41)"><circle cx="3" cy="3" r="3" transform="translate(0 275)" fill="#ff4cf3"/></g><g transform="translate(104 -41)"><circle cx="3" cy="3" r="3" transform="translate(0 275)" fill="#ff4cf3"/></g><g transform="translate(130 -41)"><circle cx="3" cy="3" r="3" transform="translate(0 275)" fill="#ff4cf3"/></g><g transform="translate(156 -41)"><circle cx="3" cy="3" r="3" transform="translate(0 275)" fill="#ff4cf3"/></g><g transform="translate(182 -41)"><circle cx="3" cy="3" r="3" transform="translate(0 275)" fill="#ff4cf3"/></g><g transform="translate(208 -41)"><circle cx="3" cy="3" r="3" transform="translate(0 275)" fill="#ff4cf3"/></g><g transform="translate(234 -41)"><circle cx="3" cy="3" r="3" transform="translate(0 275)" fill="#ff4cf3"/></g><g transform="translate(260 -41)"><circle cx="3" cy="3" r="3" transform="translate(0 275)" fill="#ff4cf3"/></g><g transform="translate(286 -41)"><circle cx="3" cy="3" r="3" transform="translate(0 275)" fill="#ff4cf3"/></g><g transform="translate(312 -41)"><circle cx="3" cy="3" r="3" transform="translate(0 275)" fill="#ff4cf3"/></g><g transform="translate(0 -15)"><circle cx="3" cy="3" r="3" transform="translate(0 275)" fill="#ff4cf3"/></g><g transform="translate(26 -15)"><circle cx="3" cy="3" r="3" transform="translate(0 275)" fill="#ff4cf3"/></g><g transform="translate(52 -15)"><circle cx="3" cy="3" r="3" transform="translate(0 275)" fill="#ff4cf3"/></g><g transform="translate(78 -15)"><circle cx="3" cy="3" r="3" transform="translate(0 275)" fill="#ff4cf3"/></g><g transform="translate(104 -15)"><circle cx="3" cy="3" r="3" transform="translate(0 275)" fill="#ff4cf3"/></g><g transform="translate(130 -15)"><circle cx="3" cy="3" r="3" transform="translate(0 275)" fill="#ff4cf3"/></g><g transform="translate(156 -15)"><circle cx="3" cy="3" r="3" transform="translate(0 275)" fill="#ff4cf3"/></g><g transform="translate(182 -15)"><circle cx="3" cy="3" r="3" transform="translate(0 275)" fill="#ff4cf3"/></g><g transform="translate(208 -15)"><circle cx="3" cy="3" r="3" transform="translate(0 275)" fill="#ff4cf3"/></g><g transform="translate(234 -15)"><circle cx="3" cy="3" r="3" transform="translate(0 275)" fill="#ff4cf3"/></g><g transform="translate(260 -15)"><circle cx="3" cy="3" r="3" transform="translate(0 275)" fill="#ff4cf3"/></g><g transform="translate(286 -15)"><circle cx="3" cy="3" r="3" transform="translate(0 275)" fill="#ff4cf3"/></g><g transform="translate(312 -15)"><circle cx="3" cy="3" r="3" transform="translate(0 275)" fill="#ff4cf3"/></g></g><g transform="translate(0 -30)"><ellipse cx="453" cy="453" rx="453" ry="453" transform="translate(1200 1287)" fill="#1d355e" opacity="0.1"/><ellipse cx="292.115" cy="292.115" rx="292.115" ry="292.115" transform="translate(1360.885 1447.886)" fill="#ae941f" opacity="0.1"/></g></g></svg>