<svg xmlns="http://www.w3.org/2000/svg" xmlns:xlink="http://www.w3.org/1999/xlink" width="2566.3" height="1841.814" viewBox="0 0 2566.3 1841.814"><defs><clipPath id="a"><rect width="332.39" height="269" fill="none"/></clipPath><clipPath id="b"><rect width="156.659" height="173" fill="none"/></clipPath></defs><g transform="translate(592.3 282.813)"><rect width="1082" height="791.705" transform="matrix(0.951, -0.309, 0.309, 0.951, -592.3, 750.333)" fill="#f6f5f2"/><rect width="1305.551" height="719" transform="translate(-412.551 0)" fill="#f6f5f2"/><rect width="893" height="1144.573" transform="matrix(0.799, 0.602, -0.602, 0.799, 657.213, -282.813)" fill="#f6f5f2"/><g transform="matrix(0.875, 0.485, -0.485, 0.875, 15.85, 266)" opacity="0.4" clip-path="url(#a)"><g transform="translate(0 -275)"><circle cx="3" cy="3" r="3" transform="translate(0 275)" fill="#22d4cd"/></g><g transform="translate(26 -275)"><circle cx="3" cy="3" r="3" transform="translate(0 275)" fill="#22d4cd"/></g><g transform="translate(52 -275)"><circle cx="3" cy="3" r="3" transform="translate(0 275)" fill="#22d4cd"/></g><g transform="translate(78 -275)"><circle cx="3" cy="3" r="3" transform="translate(0 275)" fill="#22d4cd"/></g><g transform="translate(104 -275)"><circle cx="3" cy="3" r="3" transform="translate(0 275)" fill="#22d4cd"/></g><g transform="translate(130 -275)"><circle cx="3" cy="3" r="3" transform="translate(0 275)" fill="#22d4cd"/></g><g transform="translate(156 -275)"><circle cx="3" cy="3" r="3" transform="translate(0 275)" fill="#22d4cd"/></g><g transform="translate(182 -275)"><circle cx="3" cy="3" r="3" transform="translate(0 275)" fill="#22d4cd"/></g><g transform="translate(208 -275)"><circle cx="3" cy="3" r="3" transform="translate(0 275)" fill="#22d4cd"/></g><g transform="translate(234 -275)"><circle cx="3" cy="3" r="3" transform="translate(0 275)" fill="#22d4cd"/></g><g transform="translate(260 -275)"><circle cx="3" cy="3" r="3" transform="translate(0 275)" fill="#22d4cd"/></g><g transform="translate(286 -275)"><circle cx="3" cy="3" r="3" transform="translate(0 275)" fill="#22d4cd"/></g><g transform="translate(312 -275)"><circle cx="3" cy="3" r="3" transform="translate(0 275)" fill="#22d4cd"/></g><g transform="translate(0 -249)"><circle cx="3" cy="3" r="3" transform="translate(0 275)" fill="#22d4cd"/></g><g transform="translate(26 -249)"><circle cx="3" cy="3" r="3" transform="translate(0 275)" fill="#22d4cd"/></g><g transform="translate(52 -249)"><circle cx="3" cy="3" r="3" transform="translate(0 275)" fill="#22d4cd"/></g><g transform="translate(78 -249)"><circle cx="3" cy="3" r="3" transform="translate(0 275)" fill="#22d4cd"/></g><g transform="translate(104 -249)"><circle cx="3" cy="3" r="3" transform="translate(0 275)" fill="#22d4cd"/></g><g transform="translate(130 -249)"><circle cx="3" cy="3" r="3" transform="translate(0 275)" fill="#22d4cd"/></g><g transform="translate(156 -249)"><circle cx="3" cy="3" r="3" transform="translate(0 275)" fill="#22d4cd"/></g><g transform="translate(182 -249)"><circle cx="3" cy="3" r="3" transform="translate(0 275)" fill="#22d4cd"/></g><g transform="translate(208 -249)"><circle cx="3" cy="3" r="3" transform="translate(0 275)" fill="#22d4cd"/></g><g transform="translate(234 -249)"><circle cx="3" cy="3" r="3" transform="translate(0 275)" fill="#22d4cd"/></g><g transform="translate(260 -249)"><circle cx="3" cy="3" r="3" transform="translate(0 275)" fill="#22d4cd"/></g><g transform="translate(286 -249)"><circle cx="3" cy="3" r="3" transform="translate(0 275)" fill="#22d4cd"/></g><g transform="translate(312 -249)"><circle cx="3" cy="3" r="3" transform="translate(0 275)" fill="#22d4cd"/></g><g transform="translate(0 -223)"><circle cx="3" cy="3" r="3" transform="translate(0 275)" fill="#22d4cd"/></g><g transform="translate(26 -223)"><circle cx="3" cy="3" r="3" transform="translate(0 275)" fill="#22d4cd"/></g><g transform="translate(52 -223)"><circle cx="3" cy="3" r="3" transform="translate(0 275)" fill="#22d4cd"/></g><g transform="translate(78 -223)"><circle cx="3" cy="3" r="3" transform="translate(0 275)" fill="#22d4cd"/></g><g transform="translate(104 -223)"><circle cx="3" cy="3" r="3" transform="translate(0 275)" fill="#22d4cd"/></g><g transform="translate(130 -223)"><circle cx="3" cy="3" r="3" transform="translate(0 275)" fill="#22d4cd"/></g><g transform="translate(156 -223)"><circle cx="3" cy="3" r="3" transform="translate(0 275)" fill="#22d4cd"/></g><g transform="translate(182 -223)"><circle cx="3" cy="3" r="3" transform="translate(0 275)" fill="#22d4cd"/></g><g transform="translate(208 -223)"><circle cx="3" cy="3" r="3" transform="translate(0 275)" fill="#22d4cd"/></g><g transform="translate(234 -223)"><circle cx="3" cy="3" r="3" transform="translate(0 275)" fill="#22d4cd"/></g><g transform="translate(260 -223)"><circle cx="3" cy="3" r="3" transform="translate(0 275)" fill="#22d4cd"/></g><g transform="translate(286 -223)"><circle cx="3" cy="3" r="3" transform="translate(0 275)" fill="#22d4cd"/></g><g transform="translate(312 -223)"><circle cx="3" cy="3" r="3" transform="translate(0 275)" fill="#22d4cd"/></g><g transform="translate(0 -197)"><circle cx="3" cy="3" r="3" transform="translate(0 275)" fill="#22d4cd"/></g><g transform="translate(26 -197)"><circle cx="3" cy="3" r="3" transform="translate(0 275)" fill="#22d4cd"/></g><g transform="translate(52 -197)"><circle cx="3" cy="3" r="3" transform="translate(0 275)" fill="#22d4cd"/></g><g transform="translate(78 -197)"><circle cx="3" cy="3" r="3" transform="translate(0 275)" fill="#22d4cd"/></g><g transform="translate(104 -197)"><circle cx="3" cy="3" r="3" transform="translate(0 275)" fill="#22d4cd"/></g><g transform="translate(130 -197)"><circle cx="3" cy="3" r="3" transform="translate(0 275)" fill="#22d4cd"/></g><g transform="translate(156 -197)"><circle cx="3" cy="3" r="3" transform="translate(0 275)" fill="#22d4cd"/></g><g transform="translate(182 -197)"><circle cx="3" cy="3" r="3" transform="translate(0 275)" fill="#22d4cd"/></g><g transform="translate(208 -197)"><circle cx="3" cy="3" r="3" transform="translate(0 275)" fill="#22d4cd"/></g><g transform="translate(234 -197)"><circle cx="3" cy="3" r="3" transform="translate(0 275)" fill="#22d4cd"/></g><g transform="translate(260 -197)"><circle cx="3" cy="3" r="3" transform="translate(0 275)" fill="#22d4cd"/></g><g transform="translate(286 -197)"><circle cx="3" cy="3" r="3" transform="translate(0 275)" fill="#22d4cd"/></g><g transform="translate(312 -197)"><circle cx="3" cy="3" r="3" transform="translate(0 275)" fill="#22d4cd"/></g><g transform="translate(0 -171)"><circle cx="3" cy="3" r="3" transform="translate(0 275)" fill="#22d4cd"/></g><g transform="translate(26 -171)"><circle cx="3" cy="3" r="3" transform="translate(0 275)" fill="#22d4cd"/></g><g transform="translate(52 -171)"><circle cx="3" cy="3" r="3" transform="translate(0 275)" fill="#22d4cd"/></g><g transform="translate(78 -171)"><circle cx="3" cy="3" r="3" transform="translate(0 275)" fill="#22d4cd"/></g><g transform="translate(104 -171)"><circle cx="3" cy="3" r="3" transform="translate(0 275)" fill="#22d4cd"/></g><g transform="translate(130 -171)"><circle cx="3" cy="3" r="3" transform="translate(0 275)" fill="#22d4cd"/></g><g transform="translate(156 -171)"><circle cx="3" cy="3" r="3" transform="translate(0 275)" fill="#22d4cd"/></g><g transform="translate(182 -171)"><circle cx="3" cy="3" r="3" transform="translate(0 275)" fill="#22d4cd"/></g><g transform="translate(208 -171)"><circle cx="3" cy="3" r="3" transform="translate(0 275)" fill="#22d4cd"/></g><g transform="translate(234 -171)"><circle cx="3" cy="3" r="3" transform="translate(0 275)" fill="#22d4cd"/></g><g transform="translate(260 -171)"><circle cx="3" cy="3" r="3" transform="translate(0 275)" fill="#22d4cd"/></g><g transform="translate(286 -171)"><circle cx="3" cy="3" r="3" transform="translate(0 275)" fill="#22d4cd"/></g><g transform="translate(312 -171)"><circle cx="3" cy="3" r="3" transform="translate(0 275)" fill="#22d4cd"/></g><g transform="translate(0 -145)"><circle cx="3" cy="3" r="3" transform="translate(0 275)" fill="#22d4cd"/></g><g transform="translate(26 -145)"><circle cx="3" cy="3" r="3" transform="translate(0 275)" fill="#22d4cd"/></g><g transform="translate(52 -145)"><circle cx="3" cy="3" r="3" transform="translate(0 275)" fill="#22d4cd"/></g><g transform="translate(78 -145)"><circle cx="3" cy="3" r="3" transform="translate(0 275)" fill="#22d4cd"/></g><g transform="translate(104 -145)"><circle cx="3" cy="3" r="3" transform="translate(0 275)" fill="#22d4cd"/></g><g transform="translate(130 -145)"><circle cx="3" cy="3" r="3" transform="translate(0 275)" fill="#22d4cd"/></g><g transform="translate(156 -145)"><circle cx="3" cy="3" r="3" transform="translate(0 275)" fill="#22d4cd"/></g><g transform="translate(182 -145)"><circle cx="3" cy="3" r="3" transform="translate(0 275)" fill="#22d4cd"/></g><g transform="translate(208 -145)"><circle cx="3" cy="3" r="3" transform="translate(0 275)" fill="#22d4cd"/></g><g transform="translate(234 -145)"><circle cx="3" cy="3" r="3" transform="translate(0 275)" fill="#22d4cd"/></g><g transform="translate(260 -145)"><circle cx="3" cy="3" r="3" transform="translate(0 275)" fill="#22d4cd"/></g><g transform="translate(286 -145)"><circle cx="3" cy="3" r="3" transform="translate(0 275)" fill="#22d4cd"/></g><g transform="translate(312 -145)"><circle cx="3" cy="3" r="3" transform="translate(0 275)" fill="#22d4cd"/></g><g transform="translate(0 -119)"><circle cx="3" cy="3" r="3" transform="translate(0 275)" fill="#22d4cd"/></g><g transform="translate(26 -119)"><circle cx="3" cy="3" r="3" transform="translate(0 275)" fill="#22d4cd"/></g><g transform="translate(52 -119)"><circle cx="3" cy="3" r="3" transform="translate(0 275)" fill="#22d4cd"/></g><g transform="translate(78 -119)"><circle cx="3" cy="3" r="3" transform="translate(0 275)" fill="#22d4cd"/></g><g transform="translate(104 -119)"><circle cx="3" cy="3" r="3" transform="translate(0 275)" fill="#22d4cd"/></g><g transform="translate(130 -119)"><circle cx="3" cy="3" r="3" transform="translate(0 275)" fill="#22d4cd"/></g><g transform="translate(156 -119)"><circle cx="3" cy="3" r="3" transform="translate(0 275)" fill="#22d4cd"/></g><g transform="translate(182 -119)"><circle cx="3" cy="3" r="3" transform="translate(0 275)" fill="#22d4cd"/></g><g transform="translate(208 -119)"><circle cx="3" cy="3" r="3" transform="translate(0 275)" fill="#22d4cd"/></g><g transform="translate(234 -119)"><circle cx="3" cy="3" r="3" transform="translate(0 275)" fill="#22d4cd"/></g><g transform="translate(260 -119)"><circle cx="3" cy="3" r="3" transform="translate(0 275)" fill="#22d4cd"/></g><g transform="translate(286 -119)"><circle cx="3" cy="3" r="3" transform="translate(0 275)" fill="#22d4cd"/></g><g transform="translate(312 -119)"><circle cx="3" cy="3" r="3" transform="translate(0 275)" fill="#22d4cd"/></g><g transform="translate(0 -93)"><circle cx="3" cy="3" r="3" transform="translate(0 275)" fill="#22d4cd"/></g><g transform="translate(26 -93)"><circle cx="3" cy="3" r="3" transform="translate(0 275)" fill="#22d4cd"/></g><g transform="translate(52 -93)"><circle cx="3" cy="3" r="3" transform="translate(0 275)" fill="#22d4cd"/></g><g transform="translate(78 -93)"><circle cx="3" cy="3" r="3" transform="translate(0 275)" fill="#22d4cd"/></g><g transform="translate(104 -93)"><circle cx="3" cy="3" r="3" transform="translate(0 275)" fill="#22d4cd"/></g><g transform="translate(130 -93)"><circle cx="3" cy="3" r="3" transform="translate(0 275)" fill="#22d4cd"/></g><g transform="translate(156 -93)"><circle cx="3" cy="3" r="3" transform="translate(0 275)" fill="#22d4cd"/></g><g transform="translate(182 -93)"><circle cx="3" cy="3" r="3" transform="translate(0 275)" fill="#22d4cd"/></g><g transform="translate(208 -93)"><circle cx="3" cy="3" r="3" transform="translate(0 275)" fill="#22d4cd"/></g><g transform="translate(234 -93)"><circle cx="3" cy="3" r="3" transform="translate(0 275)" fill="#22d4cd"/></g><g transform="translate(260 -93)"><circle cx="3" cy="3" r="3" transform="translate(0 275)" fill="#22d4cd"/></g><g transform="translate(286 -93)"><circle cx="3" cy="3" r="3" transform="translate(0 275)" fill="#22d4cd"/></g><g transform="translate(312 -93)"><circle cx="3" cy="3" r="3" transform="translate(0 275)" fill="#22d4cd"/></g><g transform="translate(0 -67)"><circle cx="3" cy="3" r="3" transform="translate(0 275)" fill="#22d4cd"/></g><g transform="translate(26 -67)"><circle cx="3" cy="3" r="3" transform="translate(0 275)" fill="#22d4cd"/></g><g transform="translate(52 -67)"><circle cx="3" cy="3" r="3" transform="translate(0 275)" fill="#22d4cd"/></g><g transform="translate(78 -67)"><circle cx="3" cy="3" r="3" transform="translate(0 275)" fill="#22d4cd"/></g><g transform="translate(104 -67)"><circle cx="3" cy="3" r="3" transform="translate(0 275)" fill="#22d4cd"/></g><g transform="translate(130 -67)"><circle cx="3" cy="3" r="3" transform="translate(0 275)" fill="#22d4cd"/></g><g transform="translate(156 -67)"><circle cx="3" cy="3" r="3" transform="translate(0 275)" fill="#22d4cd"/></g><g transform="translate(182 -67)"><circle cx="3" cy="3" r="3" transform="translate(0 275)" fill="#22d4cd"/></g><g transform="translate(208 -67)"><circle cx="3" cy="3" r="3" transform="translate(0 275)" fill="#22d4cd"/></g><g transform="translate(234 -67)"><circle cx="3" cy="3" r="3" transform="translate(0 275)" fill="#22d4cd"/></g><g transform="translate(260 -67)"><circle cx="3" cy="3" r="3" transform="translate(0 275)" fill="#22d4cd"/></g><g transform="translate(286 -67)"><circle cx="3" cy="3" r="3" transform="translate(0 275)" fill="#22d4cd"/></g><g transform="translate(312 -67)"><circle cx="3" cy="3" r="3" transform="translate(0 275)" fill="#22d4cd"/></g><g transform="translate(0 -41)"><circle cx="3" cy="3" r="3" transform="translate(0 275)" fill="#22d4cd"/></g><g transform="translate(26 -41)"><circle cx="3" cy="3" r="3" transform="translate(0 275)" fill="#22d4cd"/></g><g transform="translate(52 -41)"><circle cx="3" cy="3" r="3" transform="translate(0 275)" fill="#22d4cd"/></g><g transform="translate(78 -41)"><circle cx="3" cy="3" r="3" transform="translate(0 275)" fill="#22d4cd"/></g><g transform="translate(104 -41)"><circle cx="3" cy="3" r="3" transform="translate(0 275)" fill="#22d4cd"/></g><g transform="translate(130 -41)"><circle cx="3" cy="3" r="3" transform="translate(0 275)" fill="#22d4cd"/></g><g transform="translate(156 -41)"><circle cx="3" cy="3" r="3" transform="translate(0 275)" fill="#22d4cd"/></g><g transform="translate(182 -41)"><circle cx="3" cy="3" r="3" transform="translate(0 275)" fill="#22d4cd"/></g><g transform="translate(208 -41)"><circle cx="3" cy="3" r="3" transform="translate(0 275)" fill="#22d4cd"/></g><g transform="translate(234 -41)"><circle cx="3" cy="3" r="3" transform="translate(0 275)" fill="#22d4cd"/></g><g transform="translate(260 -41)"><circle cx="3" cy="3" r="3" transform="translate(0 275)" fill="#22d4cd"/></g><g transform="translate(286 -41)"><circle cx="3" cy="3" r="3" transform="translate(0 275)" fill="#22d4cd"/></g><g transform="translate(312 -41)"><circle cx="3" cy="3" r="3" transform="translate(0 275)" fill="#22d4cd"/></g><g transform="translate(0 -15)"><circle cx="3" cy="3" r="3" transform="translate(0 275)" fill="#22d4cd"/></g><g transform="translate(26 -15)"><circle cx="3" cy="3" r="3" transform="translate(0 275)" fill="#22d4cd"/></g><g transform="translate(52 -15)"><circle cx="3" cy="3" r="3" transform="translate(0 275)" fill="#22d4cd"/></g><g transform="translate(78 -15)"><circle cx="3" cy="3" r="3" transform="translate(0 275)" fill="#22d4cd"/></g><g transform="translate(104 -15)"><circle cx="3" cy="3" r="3" transform="translate(0 275)" fill="#22d4cd"/></g><g transform="translate(130 -15)"><circle cx="3" cy="3" r="3" transform="translate(0 275)" fill="#22d4cd"/></g><g transform="translate(156 -15)"><circle cx="3" cy="3" r="3" transform="translate(0 275)" fill="#22d4cd"/></g><g transform="translate(182 -15)"><circle cx="3" cy="3" r="3" transform="translate(0 275)" fill="#22d4cd"/></g><g transform="translate(208 -15)"><circle cx="3" cy="3" r="3" transform="translate(0 275)" fill="#22d4cd"/></g><g transform="translate(234 -15)"><circle cx="3" cy="3" r="3" transform="translate(0 275)" fill="#22d4cd"/></g><g transform="translate(260 -15)"><circle cx="3" cy="3" r="3" transform="translate(0 275)" fill="#22d4cd"/></g><g transform="translate(286 -15)"><circle cx="3" cy="3" r="3" transform="translate(0 275)" fill="#22d4cd"/></g><g transform="translate(312 -15)"><circle cx="3" cy="3" r="3" transform="translate(0 275)" fill="#22d4cd"/></g></g><g transform="matrix(0.988, -0.156, 0.156, 0.988, 1127.961, 493.908)" opacity="0.4" clip-path="url(#b)"><g transform="translate(0 -275)"><circle cx="3" cy="3" r="3" transform="translate(0 275)" fill="#e66044"/></g><g transform="translate(26 -275)"><circle cx="3" cy="3" r="3" transform="translate(0 275)" fill="#e66044"/></g><g transform="translate(52 -275)"><circle cx="3" cy="3" r="3" transform="translate(0 275)" fill="#e66044"/></g><g transform="translate(78 -275)"><circle cx="3" cy="3" r="3" transform="translate(0 275)" fill="#e66044"/></g><g transform="translate(104 -275)"><circle cx="3" cy="3" r="3" transform="translate(0 275)" fill="#e66044"/></g><g transform="translate(130 -275)"><circle cx="3" cy="3" r="3" transform="translate(0 275)" fill="#e66044"/></g><g transform="translate(156 -275)"><circle cx="3" cy="3" r="3" transform="translate(0 275)" fill="#e66044"/></g><g transform="translate(0 -249)"><circle cx="3" cy="3" r="3" transform="translate(0 275)" fill="#e66044"/></g><g transform="translate(26 -249)"><circle cx="3" cy="3" r="3" transform="translate(0 275)" fill="#e66044"/></g><g transform="translate(52 -249)"><circle cx="3" cy="3" r="3" transform="translate(0 275)" fill="#e66044"/></g><g transform="translate(78 -249)"><circle cx="3" cy="3" r="3" transform="translate(0 275)" fill="#e66044"/></g><g transform="translate(104 -249)"><circle cx="3" cy="3" r="3" transform="translate(0 275)" fill="#e66044"/></g><g transform="translate(130 -249)"><circle cx="3" cy="3" r="3" transform="translate(0 275)" fill="#e66044"/></g><g transform="translate(156 -249)"><circle cx="3" cy="3" r="3" transform="translate(0 275)" fill="#e66044"/></g><g transform="translate(0 -223)"><circle cx="3" cy="3" r="3" transform="translate(0 275)" fill="#e66044"/></g><g transform="translate(26 -223)"><circle cx="3" cy="3" r="3" transform="translate(0 275)" fill="#e66044"/></g><g transform="translate(52 -223)"><circle cx="3" cy="3" r="3" transform="translate(0 275)" fill="#e66044"/></g><g transform="translate(78 -223)"><circle cx="3" cy="3" r="3" transform="translate(0 275)" fill="#e66044"/></g><g transform="translate(104 -223)"><circle cx="3" cy="3" r="3" transform="translate(0 275)" fill="#e66044"/></g><g transform="translate(130 -223)"><circle cx="3" cy="3" r="3" transform="translate(0 275)" fill="#e66044"/></g><g transform="translate(156 -223)"><circle cx="3" cy="3" r="3" transform="translate(0 275)" fill="#e66044"/></g><g transform="translate(0 -197)"><circle cx="3" cy="3" r="3" transform="translate(0 275)" fill="#e66044"/></g><g transform="translate(26 -197)"><circle cx="3" cy="3" r="3" transform="translate(0 275)" fill="#e66044"/></g><g transform="translate(52 -197)"><circle cx="3" cy="3" r="3" transform="translate(0 275)" fill="#e66044"/></g><g transform="translate(78 -197)"><circle cx="3" cy="3" r="3" transform="translate(0 275)" fill="#e66044"/></g><g transform="translate(104 -197)"><circle cx="3" cy="3" r="3" transform="translate(0 275)" fill="#e66044"/></g><g transform="translate(130 -197)"><circle cx="3" cy="3" r="3" transform="translate(0 275)" fill="#e66044"/></g><g transform="translate(156 -197)"><circle cx="3" cy="3" r="3" transform="translate(0 275)" fill="#e66044"/></g><g transform="translate(0 -171)"><circle cx="3" cy="3" r="3" transform="translate(0 275)" fill="#e66044"/></g><g transform="translate(26 -171)"><circle cx="3" cy="3" r="3" transform="translate(0 275)" fill="#e66044"/></g><g transform="translate(52 -171)"><circle cx="3" cy="3" r="3" transform="translate(0 275)" fill="#e66044"/></g><g transform="translate(78 -171)"><circle cx="3" cy="3" r="3" transform="translate(0 275)" fill="#e66044"/></g><g transform="translate(104 -171)"><circle cx="3" cy="3" r="3" transform="translate(0 275)" fill="#e66044"/></g><g transform="translate(130 -171)"><circle cx="3" cy="3" r="3" transform="translate(0 275)" fill="#e66044"/></g><g transform="translate(156 -171)"><circle cx="3" cy="3" r="3" transform="translate(0 275)" fill="#e66044"/></g><g transform="translate(0 -145)"><circle cx="3" cy="3" r="3" transform="translate(0 275)" fill="#e66044"/></g><g transform="translate(26 -145)"><circle cx="3" cy="3" r="3" transform="translate(0 275)" fill="#e66044"/></g><g transform="translate(52 -145)"><circle cx="3" cy="3" r="3" transform="translate(0 275)" fill="#e66044"/></g><g transform="translate(78 -145)"><circle cx="3" cy="3" r="3" transform="translate(0 275)" fill="#e66044"/></g><g transform="translate(104 -145)"><circle cx="3" cy="3" r="3" transform="translate(0 275)" fill="#e66044"/></g><g transform="translate(130 -145)"><circle cx="3" cy="3" r="3" transform="translate(0 275)" fill="#e66044"/></g><g transform="translate(156 -145)"><circle cx="3" cy="3" r="3" transform="translate(0 275)" fill="#e66044"/></g><g transform="translate(0 -119)"><circle cx="3" cy="3" r="3" transform="translate(0 275)" fill="#e66044"/></g><g transform="translate(26 -119)"><circle cx="3" cy="3" r="3" transform="translate(0 275)" fill="#e66044"/></g><g transform="translate(52 -119)"><circle cx="3" cy="3" r="3" transform="translate(0 275)" fill="#e66044"/></g><g transform="translate(78 -119)"><circle cx="3" cy="3" r="3" transform="translate(0 275)" fill="#e66044"/></g><g transform="translate(104 -119)"><circle cx="3" cy="3" r="3" transform="translate(0 275)" fill="#e66044"/></g><g transform="translate(130 -119)"><circle cx="3" cy="3" r="3" transform="translate(0 275)" fill="#e66044"/></g><g transform="translate(156 -119)"><circle cx="3" cy="3" r="3" transform="translate(0 275)" fill="#e66044"/></g></g><circle cx="71" cy="71" r="71" transform="translate(1232 267)" fill="#4cff9a"/><g transform="translate(65 497)" fill="none" stroke="#fff" stroke-linejoin="round" stroke-width="8"><circle cx="96.5" cy="96.5" r="96.5" stroke="none"/><circle cx="96.5" cy="96.5" r="92.5" fill="none"/></g><circle cx="273.5" cy="273.5" r="273.5" transform="translate(1427 268)" fill="#1d355e"/><circle cx="176.365" cy="176.365" r="176.365" transform="translate(1524.135 365.135)" fill="#ae941f"/><circle cx="45.827" cy="45.827" r="45.827" transform="translate(1198.345 347)" fill="#eb44c4"/><g transform="translate(695.345 484.345)" fill="none" stroke="#ffe43f" stroke-width="6"><circle cx="45.827" cy="45.827" r="45.827" stroke="none"/><circle cx="45.827" cy="45.827" r="42.827" fill="none"/></g><g transform="translate(-346 653)" fill="none" stroke="#1d355e" stroke-width="2" opacity="0.3"><ellipse cx="453" cy="453" rx="453" ry="453" stroke="none"/><ellipse cx="453" cy="453" rx="452" ry="452" fill="none"/></g><g transform="translate(-185.115 813.886)" fill="none" stroke="#aa9439" stroke-width="2" opacity="0.3"><ellipse cx="292.115" cy="292.115" rx="292.115" ry="292.115" stroke="none"/><ellipse cx="292.115" cy="292.115" rx="291.115" ry="291.115" fill="none"/></g></g></svg>