<svg xmlns="http://www.w3.org/2000/svg" xmlns:xlink="http://www.w3.org/1999/xlink" width="548.092" height="518.008" viewBox="0 0 548.092 518.008"><defs><clipPath id="a"><rect width="84.295" height="74.611" fill="none"/></clipPath><clipPath id="b"><rect width="58.969" height="58.196" fill="none"/></clipPath></defs><g transform="translate(-601 -176.344)"><rect width="340" height="448" transform="translate(601 193)" fill="#f6f5f2" opacity="0.7"/><g transform="matrix(0.875, -0.485, 0.485, 0.875, 675.575, 629.096)" opacity="0.4" clip-path="url(#a)"><g transform="translate(0 -275)"><circle cx="1.5" cy="1.5" r="1.5" transform="translate(0 275)" fill="#22d4cd"/></g><g transform="translate(13 -275)"><circle cx="1.5" cy="1.5" r="1.5" transform="translate(0 275)" fill="#22d4cd"/></g><g transform="translate(26 -275)"><circle cx="1.5" cy="1.5" r="1.5" transform="translate(0 275)" fill="#22d4cd"/></g><g transform="translate(39 -275)"><circle cx="1.5" cy="1.5" r="1.5" transform="translate(0 275)" fill="#22d4cd"/></g><g transform="translate(52 -275)"><circle cx="1.5" cy="1.5" r="1.5" transform="translate(0 275)" fill="#22d4cd"/></g><g transform="translate(65 -275)"><circle cx="1.5" cy="1.5" r="1.5" transform="translate(0 275)" fill="#22d4cd"/></g><g transform="translate(78 -275)"><circle cx="1.5" cy="1.5" r="1.5" transform="translate(0 275)" fill="#22d4cd"/></g><g transform="translate(0 -262)"><circle cx="1.5" cy="1.5" r="1.5" transform="translate(0 275)" fill="#22d4cd"/></g><g transform="translate(13 -262)"><circle cx="1.5" cy="1.5" r="1.5" transform="translate(0 275)" fill="#22d4cd"/></g><g transform="translate(26 -262)"><circle cx="1.5" cy="1.5" r="1.5" transform="translate(0 275)" fill="#22d4cd"/></g><g transform="translate(39 -262)"><circle cx="1.5" cy="1.5" r="1.5" transform="translate(0 275)" fill="#22d4cd"/></g><g transform="translate(52 -262)"><circle cx="1.5" cy="1.5" r="1.5" transform="translate(0 275)" fill="#22d4cd"/></g><g transform="translate(65 -262)"><circle cx="1.5" cy="1.5" r="1.5" transform="translate(0 275)" fill="#22d4cd"/></g><g transform="translate(78 -262)"><circle cx="1.5" cy="1.5" r="1.5" transform="translate(0 275)" fill="#22d4cd"/></g><g transform="translate(0 -249)"><circle cx="1.5" cy="1.5" r="1.5" transform="translate(0 275)" fill="#22d4cd"/></g><g transform="translate(13 -249)"><circle cx="1.5" cy="1.5" r="1.5" transform="translate(0 275)" fill="#22d4cd"/></g><g transform="translate(26 -249)"><circle cx="1.5" cy="1.5" r="1.5" transform="translate(0 275)" fill="#22d4cd"/></g><g transform="translate(39 -249)"><circle cx="1.5" cy="1.5" r="1.5" transform="translate(0 275)" fill="#22d4cd"/></g><g transform="translate(52 -249)"><circle cx="1.5" cy="1.5" r="1.5" transform="translate(0 275)" fill="#22d4cd"/></g><g transform="translate(65 -249)"><circle cx="1.5" cy="1.5" r="1.5" transform="translate(0 275)" fill="#22d4cd"/></g><g transform="translate(78 -249)"><circle cx="1.5" cy="1.5" r="1.5" transform="translate(0 275)" fill="#22d4cd"/></g><g transform="translate(0 -236)"><circle cx="1.5" cy="1.5" r="1.5" transform="translate(0 275)" fill="#22d4cd"/></g><g transform="translate(13 -236)"><circle cx="1.5" cy="1.5" r="1.5" transform="translate(0 275)" fill="#22d4cd"/></g><g transform="translate(26 -236)"><circle cx="1.5" cy="1.5" r="1.5" transform="translate(0 275)" fill="#22d4cd"/></g><g transform="translate(39 -236)"><circle cx="1.5" cy="1.5" r="1.5" transform="translate(0 275)" fill="#22d4cd"/></g><g transform="translate(52 -236)"><circle cx="1.5" cy="1.5" r="1.5" transform="translate(0 275)" fill="#22d4cd"/></g><g transform="translate(65 -236)"><circle cx="1.5" cy="1.5" r="1.5" transform="translate(0 275)" fill="#22d4cd"/></g><g transform="translate(78 -236)"><circle cx="1.5" cy="1.5" r="1.5" transform="translate(0 275)" fill="#22d4cd"/></g><g transform="translate(0 -223)"><circle cx="1.5" cy="1.5" r="1.5" transform="translate(0 275)" fill="#22d4cd"/></g><g transform="translate(13 -223)"><circle cx="1.5" cy="1.5" r="1.5" transform="translate(0 275)" fill="#22d4cd"/></g><g transform="translate(26 -223)"><circle cx="1.5" cy="1.5" r="1.5" transform="translate(0 275)" fill="#22d4cd"/></g><g transform="translate(39 -223)"><circle cx="1.5" cy="1.5" r="1.5" transform="translate(0 275)" fill="#22d4cd"/></g><g transform="translate(52 -223)"><circle cx="1.5" cy="1.5" r="1.5" transform="translate(0 275)" fill="#22d4cd"/></g><g transform="translate(65 -223)"><circle cx="1.5" cy="1.5" r="1.5" transform="translate(0 275)" fill="#22d4cd"/></g><g transform="translate(78 -223)"><circle cx="1.5" cy="1.5" r="1.5" transform="translate(0 275)" fill="#22d4cd"/></g><g transform="translate(0 -210)"><circle cx="1.5" cy="1.5" r="1.5" transform="translate(0 275)" fill="#22d4cd"/></g><g transform="translate(13 -210)"><circle cx="1.5" cy="1.5" r="1.5" transform="translate(0 275)" fill="#22d4cd"/></g><g transform="translate(26 -210)"><circle cx="1.5" cy="1.5" r="1.5" transform="translate(0 275)" fill="#22d4cd"/></g><g transform="translate(39 -210)"><circle cx="1.5" cy="1.5" r="1.5" transform="translate(0 275)" fill="#22d4cd"/></g><g transform="translate(52 -210)"><circle cx="1.5" cy="1.5" r="1.5" transform="translate(0 275)" fill="#22d4cd"/></g><g transform="translate(65 -210)"><circle cx="1.5" cy="1.5" r="1.5" transform="translate(0 275)" fill="#22d4cd"/></g><g transform="translate(78 -210)"><circle cx="1.5" cy="1.5" r="1.5" transform="translate(0 275)" fill="#22d4cd"/></g></g><g transform="matrix(0.883, 0.469, -0.469, 0.883, 1031.204, 588.835)" opacity="0.4" clip-path="url(#b)"><g transform="translate(0 -275)"><circle cx="1" cy="1" r="1" transform="translate(0 275)" fill="#e66044"/></g><g transform="translate(8 -275)"><circle cx="1" cy="1" r="1" transform="translate(0 275)" fill="#e66044"/></g><g transform="translate(16 -275)"><circle cx="1" cy="1" r="1" transform="translate(0 275)" fill="#e66044"/></g><g transform="translate(24 -275)"><circle cx="1" cy="1" r="1" transform="translate(0 275)" fill="#e66044"/></g><g transform="translate(32 -275)"><circle cx="1" cy="1" r="1" transform="translate(0 275)" fill="#e66044"/></g><g transform="translate(40 -275)"><circle cx="1" cy="1" r="1" transform="translate(0 275)" fill="#e66044"/></g><g transform="translate(48 -275)"><circle cx="1" cy="1" r="1" transform="translate(0 275)" fill="#e66044"/></g><g transform="translate(56 -275)"><circle cx="1" cy="1" r="1" transform="translate(0 275)" fill="#e66044"/></g><g transform="translate(0 -268)"><circle cx="1" cy="1" r="1" transform="translate(0 275)" fill="#e66044"/></g><g transform="translate(8 -268)"><circle cx="1" cy="1" r="1" transform="translate(0 275)" fill="#e66044"/></g><g transform="translate(16 -268)"><circle cx="1" cy="1" r="1" transform="translate(0 275)" fill="#e66044"/></g><g transform="translate(24 -268)"><circle cx="1" cy="1" r="1" transform="translate(0 275)" fill="#e66044"/></g><g transform="translate(32 -268)"><circle cx="1" cy="1" r="1" transform="translate(0 275)" fill="#e66044"/></g><g transform="translate(40 -268)"><circle cx="1" cy="1" r="1" transform="translate(0 275)" fill="#e66044"/></g><g transform="translate(48 -268)"><circle cx="1" cy="1" r="1" transform="translate(0 275)" fill="#e66044"/></g><g transform="translate(56 -268)"><circle cx="1" cy="1" r="1" transform="translate(0 275)" fill="#e66044"/></g><g transform="translate(0 -261)"><circle cx="1" cy="1" r="1" transform="translate(0 275)" fill="#e66044"/></g><g transform="translate(8 -261)"><circle cx="1" cy="1" r="1" transform="translate(0 275)" fill="#e66044"/></g><g transform="translate(16 -261)"><circle cx="1" cy="1" r="1" transform="translate(0 275)" fill="#e66044"/></g><g transform="translate(24 -261)"><circle cx="1" cy="1" r="1" transform="translate(0 275)" fill="#e66044"/></g><g transform="translate(32 -261)"><circle cx="1" cy="1" r="1" transform="translate(0 275)" fill="#e66044"/></g><g transform="translate(40 -261)"><circle cx="1" cy="1" r="1" transform="translate(0 275)" fill="#e66044"/></g><g transform="translate(48 -261)"><circle cx="1" cy="1" r="1" transform="translate(0 275)" fill="#e66044"/></g><g transform="translate(56 -261)"><circle cx="1" cy="1" r="1" transform="translate(0 275)" fill="#e66044"/></g><g transform="translate(0 -254)"><circle cx="1" cy="1" r="1" transform="translate(0 275)" fill="#e66044"/></g><g transform="translate(8 -254)"><circle cx="1" cy="1" r="1" transform="translate(0 275)" fill="#e66044"/></g><g transform="translate(16 -254)"><circle cx="1" cy="1" r="1" transform="translate(0 275)" fill="#e66044"/></g><g transform="translate(24 -254)"><circle cx="1" cy="1" r="1" transform="translate(0 275)" fill="#e66044"/></g><g transform="translate(32 -254)"><circle cx="1" cy="1" r="1" transform="translate(0 275)" fill="#e66044"/></g><g transform="translate(40 -254)"><circle cx="1" cy="1" r="1" transform="translate(0 275)" fill="#e66044"/></g><g transform="translate(48 -254)"><circle cx="1" cy="1" r="1" transform="translate(0 275)" fill="#e66044"/></g><g transform="translate(56 -254)"><circle cx="1" cy="1" r="1" transform="translate(0 275)" fill="#e66044"/></g><g transform="translate(0 -247)"><circle cx="1" cy="1" r="1" transform="translate(0 275)" fill="#e66044"/></g><g transform="translate(8 -247)"><circle cx="1" cy="1" r="1" transform="translate(0 275)" fill="#e66044"/></g><g transform="translate(16 -247)"><circle cx="1" cy="1" r="1" transform="translate(0 275)" fill="#e66044"/></g><g transform="translate(24 -247)"><circle cx="1" cy="1" r="1" transform="translate(0 275)" fill="#e66044"/></g><g transform="translate(32 -247)"><circle cx="1" cy="1" r="1" transform="translate(0 275)" fill="#e66044"/></g><g transform="translate(40 -247)"><circle cx="1" cy="1" r="1" transform="translate(0 275)" fill="#e66044"/></g><g transform="translate(48 -247)"><circle cx="1" cy="1" r="1" transform="translate(0 275)" fill="#e66044"/></g><g transform="translate(56 -247)"><circle cx="1" cy="1" r="1" transform="translate(0 275)" fill="#e66044"/></g><g transform="translate(0 -240)"><circle cx="1" cy="1" r="1" transform="translate(0 275)" fill="#e66044"/></g><g transform="translate(8 -240)"><circle cx="1" cy="1" r="1" transform="translate(0 275)" fill="#e66044"/></g><g transform="translate(16 -240)"><circle cx="1" cy="1" r="1" transform="translate(0 275)" fill="#e66044"/></g><g transform="translate(24 -240)"><circle cx="1" cy="1" r="1" transform="translate(0 275)" fill="#e66044"/></g><g transform="translate(32 -240)"><circle cx="1" cy="1" r="1" transform="translate(0 275)" fill="#e66044"/></g><g transform="translate(40 -240)"><circle cx="1" cy="1" r="1" transform="translate(0 275)" fill="#e66044"/></g><g transform="translate(48 -240)"><circle cx="1" cy="1" r="1" transform="translate(0 275)" fill="#e66044"/></g><g transform="translate(56 -240)"><circle cx="1" cy="1" r="1" transform="translate(0 275)" fill="#e66044"/></g><g transform="translate(0 -233)"><circle cx="1" cy="1" r="1" transform="translate(0 275)" fill="#e66044"/></g><g transform="translate(8 -233)"><circle cx="1" cy="1" r="1" transform="translate(0 275)" fill="#e66044"/></g><g transform="translate(16 -233)"><circle cx="1" cy="1" r="1" transform="translate(0 275)" fill="#e66044"/></g><g transform="translate(24 -233)"><circle cx="1" cy="1" r="1" transform="translate(0 275)" fill="#e66044"/></g><g transform="translate(32 -233)"><circle cx="1" cy="1" r="1" transform="translate(0 275)" fill="#e66044"/></g><g transform="translate(40 -233)"><circle cx="1" cy="1" r="1" transform="translate(0 275)" fill="#e66044"/></g><g transform="translate(48 -233)"><circle cx="1" cy="1" r="1" transform="translate(0 275)" fill="#e66044"/></g><g transform="translate(56 -233)"><circle cx="1" cy="1" r="1" transform="translate(0 275)" fill="#e66044"/></g><g transform="translate(0 -226)"><circle cx="1" cy="1" r="1" transform="translate(0 275)" fill="#e66044"/></g><g transform="translate(8 -226)"><circle cx="1" cy="1" r="1" transform="translate(0 275)" fill="#e66044"/></g><g transform="translate(16 -226)"><circle cx="1" cy="1" r="1" transform="translate(0 275)" fill="#e66044"/></g><g transform="translate(24 -226)"><circle cx="1" cy="1" r="1" transform="translate(0 275)" fill="#e66044"/></g><g transform="translate(32 -226)"><circle cx="1" cy="1" r="1" transform="translate(0 275)" fill="#e66044"/></g><g transform="translate(40 -226)"><circle cx="1" cy="1" r="1" transform="translate(0 275)" fill="#e66044"/></g><g transform="translate(48 -226)"><circle cx="1" cy="1" r="1" transform="translate(0 275)" fill="#e66044"/></g><g transform="translate(56 -226)"><circle cx="1" cy="1" r="1" transform="translate(0 275)" fill="#e66044"/></g><g transform="translate(0 -219)"><circle cx="1" cy="1" r="1" transform="translate(0 275)" fill="#e66044"/></g><g transform="translate(8 -219)"><circle cx="1" cy="1" r="1" transform="translate(0 275)" fill="#e66044"/></g><g transform="translate(16 -219)"><circle cx="1" cy="1" r="1" transform="translate(0 275)" fill="#e66044"/></g><g transform="translate(24 -219)"><circle cx="1" cy="1" r="1" transform="translate(0 275)" fill="#e66044"/></g><g transform="translate(32 -219)"><circle cx="1" cy="1" r="1" transform="translate(0 275)" fill="#e66044"/></g><g transform="translate(40 -219)"><circle cx="1" cy="1" r="1" transform="translate(0 275)" fill="#e66044"/></g><g transform="translate(48 -219)"><circle cx="1" cy="1" r="1" transform="translate(0 275)" fill="#e66044"/></g><g transform="translate(56 -219)"><circle cx="1" cy="1" r="1" transform="translate(0 275)" fill="#e66044"/></g></g><g transform="translate(987.31 175.899)"><circle cx="81" cy="81" r="81" transform="translate(-0.218 0.445)" fill="#1d355e"/><ellipse cx="52.404" cy="52.404" rx="52.404" ry="52.404" transform="translate(28.538 28.862)" fill="#ae941f"/></g><g transform="translate(753.444 627.057)" fill="none" stroke="#ffe43f" stroke-width="6"><ellipse cx="21.3" cy="21.3" rx="21.3" ry="21.3" stroke="none"/><ellipse cx="21.3" cy="21.3" rx="18.3" ry="18.3" fill="none"/></g><ellipse cx="20.018" cy="20.018" rx="20.018" ry="20.018" transform="translate(1068.784 624.326)" fill="#4cff9a"/><ellipse cx="12.921" cy="12.921" rx="12.921" ry="12.921" transform="translate(1035.918 667.903)" fill="#eb44c4"/></g></svg>